<?xml version="1.0" ?><svg data-name="Layer 3" id="Layer_3" viewBox="0 0 48 48" xmlns="http://www.w3.org/2000/svg"><defs><style>.cls-1{fill:#ffd787;}.cls-2{fill:#ffa866;}.cls-3{fill:#686886;opacity:0.66;}.cls-4{fill:#ff8163;}.cls-5{fill:#666;}</style></defs><path class="cls-1" d="M35.48,23.29c-.16.09-.32.19-.49005.28-.12.07-.25.14-.38.21a67.05322,67.05322,0,0,1-9.59,4.2,68.01682,68.01682,0,0,1-9.73,2.74c-.19.04-.37.07-.55.1a11.50435,11.50435,0,0,1-1.85-3.84,1.59781,1.59781,0,0,1-.05-.21,10.75,10.75,0,0,1-.33-2.55,11.48994,11.48994,0,0,1,8.51-11.33,11.31649,11.31649,0,0,1,4.65-.26A11.54309,11.54309,0,0,1,33.13,17c.14.19.28.38.42.58a9.8648,9.8648,0,0,1,.91,1.66,10.79375,10.79375,0,0,1,.65,1.78A11.31056,11.31056,0,0,1,35.48,23.29Z"/><path class="cls-1" d="M35.48,23.29a10.73006,10.73006,0,0,1-.19,2.84,11.47469,11.47469,0,0,1-17.74,7.38c-.31-.21-.61-.43-.9-.67a11.11557,11.11557,0,0,1-1.91-2.02c.18-.03.36-.06.55-.1a68.01682,68.01682,0,0,0,9.73-2.74,67.05322,67.05322,0,0,0,9.59-4.2c.13-.07.26-.14.38-.21C35.16,23.48,35.32,23.38,35.48,23.29Z"/><path class="cls-2" d="M23.56348,32.647a.50068.50068,0,0,1-.10352-.01074A31.32658,31.32658,0,0,1,17.769,30.86084a.50023.50023,0,0,1,.38867-.92188A30.28667,30.28667,0,0,0,23.666,31.65771a.5.5,0,0,1-.10254.98926Z"/><path class="cls-2" d="M26.709,33.14209c-.01709,0-.03418-.001-.05175-.00244-.2461-.02539-.49512-.05469-.74512-.08789-.24268-.03076-.48584-.06494-.728-.102a.49976.49976,0,0,1,.14942-.98828q.353.05273.707.09863c.24267.03174.48193.06006.71924.08447a.50009.50009,0,0,1-.05079.99756Z"/><path class="cls-2" d="M34.14111,20.26123a.49751.49751,0,0,1-.27295-.08154,27.01851,27.01851,0,0,0-6.07959-2.89551.49982.49982,0,1,1,.31934-.94727A27.996,27.996,0,0,1,34.415,19.34277a.5.5,0,0,1-.27393.91846Z"/><path class="cls-2" d="M33.90527,29.26025c-.0166,0-.03369-.001-.05127-.00244a60.71945,60.71945,0,0,1-6.66894-1.12109l-.45361-.1001a.5.5,0,1,1,.21972-.97558l.44727.09863a59.67006,59.67006,0,0,0,6.55713,1.103.50006.50006,0,0,1-.0503.99755Z"/><path class="cls-2" d="M20.0542,20.71094a.50068.50068,0,0,1-.10352-.01074,57.57253,57.57253,0,0,0-5.90625-.9629.50014.50014,0,1,1,.10157-.99511,58.66558,58.66558,0,0,1,6.01074.97949.5.5,0,0,1-.10254.98926Z"/><path class="cls-2" d="M22.6084,29.69434a.4913.4913,0,0,1-.1294-.01709q-1.09863-.293-2.16064-.63282a.49985.49985,0,1,1,.30469-.95214q1.03637.33105,2.11377.61914a.49993.49993,0,0,1-.12842.98291Z"/><path class="cls-2" d="M26.64893,19.66016a.51884.51884,0,0,1-.14258-.02051c-1.4585-.4336-2.94531-.79736-4.41992-1.08008a.50017.50017,0,1,1,.18847-.98242c1.50684.28955,3.02637.66064,4.5166,1.10351a.5001.5001,0,0,1-.14257.9795Z"/><path class="cls-2" d="M20.023,18.209a.4956.4956,0,0,1-.07031-.00488q-.8064-.11352-1.57178-.18847a.5.5,0,0,1,.09766-.99512q.78515.0769,1.61377.19336a.5.5,0,0,1-.06934.99511Z"/><path class="cls-3" d="M26.98,35.11a11.46042,11.46042,0,0,1-9.43-1.6,11.29638,11.29638,0,0,0,4.02-.36,11.67638,11.67638,0,0,0,8.26-14.3,11.55975,11.55975,0,0,0-4.16-6.22,11.49568,11.49568,0,0,1,1.31,22.48Z"/><path class="cls-4" d="M44.38,20.33a19.12459,19.12459,0,0,1-2.62,2.11c-.13.09-.26.18-.39.26a52.167,52.167,0,0,1-6.08,3.43c-.18.09-.36005.18-.55.27a95.98963,95.98963,0,0,1-8.97,3.7c-2.97,1.05-5.84,1.92-8.51,2.59-.21.05-.41.1-.61.15-7.85,1.91-13.72,2.05-14.44.03-.69-1.93,3.54-5.32,10.3-8.65a10.75,10.75,0,0,0,.33,2.55c-2.71,1.54-4.25,2.91-3.97,3.73.3.85,2.55.92,5.87.32.18-.03.36-.06.55-.1a68.01682,68.01682,0,0,0,9.73-2.74,67.05322,67.05322,0,0,0,9.59-4.2c.13-.07.26-.14.38-.21.17-.09.33-.19.49005-.28a20.73939,20.73939,0,0,0,1.85-1.19A7.3383,7.3383,0,0,0,38.74,20.84c.36005-.43006.5-.8.39-1.1-.2-.55-1.2-.77-2.77-.69q-.42.015-.9.06c-.31.03-.65.08-1,.13A10.6827,10.6827,0,0,0,33.13,17c.57-.12,1.11-.23,1.65-.34,1.11-.21,2.17-.37994,3.15-.5a26.22455,26.22455,0,0,1,2.88-.22c2.78-.1,4.6.37,4.98,1.44C46.07,18.16,45.54,19.17,44.38,20.33Z"/><path class="cls-5" d="M44.38,20.33a19.12459,19.12459,0,0,1-2.62,2.11c-.13.09-.26.18-.39.26l-6.76,1.08c.13-.07.26-.14.38-.21.17-.09.33-.19.49005-.28a20.73939,20.73939,0,0,0,1.85-1.19A7.3383,7.3383,0,0,0,38.74,20.84c.36005-.43006.5-.8.39-1.1-.2-.55-1.2-.77-2.77-.69q-.42.015-.9.06c-.31.03-.65.08-1,.13a9.8648,9.8648,0,0,0-.91-1.66l1.23-.92c1.11-.21,2.17-.37994,3.15-.5a26.22455,26.22455,0,0,1,2.88-.22c2.78-.1,4.6.37,4.98,1.44C46.07,18.16,45.54,19.17,44.38,20.33Z"/></svg>